<?xml version="1.0" encoding="UTF-8" standalone="no"?>
<svg
   xmlns:lucid="lucid"
   xmlns:dc="http://purl.org/dc/elements/1.1/"
   xmlns:cc="http://creativecommons.org/ns#"
   xmlns:rdf="http://www.w3.org/1999/02/22-rdf-syntax-ns#"
   xmlns:svg="http://www.w3.org/2000/svg"
   xmlns="http://www.w3.org/2000/svg"
   xmlns:xlink="http://www.w3.org/1999/xlink"
   xmlns:sodipodi="http://sodipodi.sourceforge.net/DTD/sodipodi-0.dtd"
   xmlns:inkscape="http://www.inkscape.org/namespaces/inkscape"
   inkscape:version="1.0 (4035a4f, 2020-05-01)"
   sodipodi:docname="diagram.svg"
   id="svg344"
   version="1.1"
   height="466.59998"
   width="740">
  <metadata
     id="metadata350">
    <rdf:RDF>
      <cc:Work
         rdf:about="">
        <dc:format>image/svg+xml</dc:format>
        <dc:type
           rdf:resource="http://purl.org/dc/dcmitype/StillImage" />
        <dc:title></dc:title>
      </cc:Work>
    </rdf:RDF>
  </metadata>
  <defs
     id="defs348" />
  <sodipodi:namedview
     inkscape:current-layer="svg344"
     inkscape:window-maximized="1"
     inkscape:window-y="23"
     inkscape:window-x="0"
     inkscape:cy="242.50126"
     inkscape:cx="812.42906"
     inkscape:zoom="0.43131451"
     showgrid="false"
     id="namedview346"
     inkscape:window-height="855"
     inkscape:window-width="1440"
     inkscape:pageshadow="2"
     inkscape:pageopacity="0"
     guidetolerance="10"
     gridtolerance="10"
     objecttolerance="10"
     borderopacity="1"
     bordercolor="#666666"
     pagecolor="#ffffff" />
  <g
     id="g342"
     lucid:page-tab-id="0_0"
     transform="matrix(0.75742068,0,0,0.75742068,-29.539406,-90.882907)">
    <path
       id="path10"
       fill="#8c3123"
       d="m 958,125.42 57.98,8.62 v 5.1 c 0,7.53 -25.98,13.63 -58,13.63 -32,0 -57.98,-6.1 -57.98,-13.64 v -5.53 z" />
    <path
       id="path12"
       fill="#8c3123"
       d="m 958.02,162.13 c 24.2,0 44.93,-3.54 53.58,-8.5 l 2.88,-4.78 1.15,-4.4 v 5.45 l -19,81 c 0,5.08 -17.3,9.1 -38.6,9.1 -21.33,0 -38.6,-4.02 -38.6,-9.1 l -19.02,-81 v -5.35 l 4.38,9.27 c 8.76,4.87 29.27,8.3 53.24,8.3 z" />
    <path
       id="path14"
       fill="#e05243"
       d="m 958,120 c 32,0 58,6.12 58,13.62 0,7.5 -26,13.57 -58,13.57 -32,0 -58,-6.02 -58,-13.58 0,-7.56 26,-13.62 58,-13.62 z" />
    <path
       id="path16"
       fill="#e05243"
       d="m 958,156.6 c 29.84,0 54.4,-5.2 57.62,-12.06 l -19.02,81 c 0,5.05 -17.3,9.1 -38.6,9.1 -21.33,0 -38.6,-4.05 -38.6,-9.1 l -19.03,-81 c 3.23,6.85 27.78,12.07 57.62,12.07 z" />
    <path
       id="path18"
       fill="#ffffff"
       d="m 944.35,164.38 h 25.1 v 24.96 h -25.1 z m -7.6,33.79 c 6.84,0 12.4,5.5 12.4,12.3 0,6.8 -5.56,12.3 -12.4,12.3 -6.83,0 -12.38,-5.5 -12.38,-12.3 0,-6.8 5.55,-12.3 12.38,-12.3 z M 988.8,222.2 H 964 l 12.4,-22.94 z" />
    <use
       height="100%"
       width="100%"
       y="0"
       x="0"
       id="use20"
       transform="translate(913.05,254.4)"
       xlink:href="#a" />
    <use
       height="100%"
       width="100%"
       y="0"
       x="0"
       id="use22"
       transform="translate(971.05,254.4)"
       xlink:href="#b" />
    <use
       height="100%"
       width="100%"
       y="0"
       x="0"
       id="use24"
       transform="translate(929.525,276)"
       xlink:href="#c" />
    <path
       id="path26"
       fill="#fbbf93"
       d="m 734.93,630.2 -22.9,30.67 -12.03,-30.6 21.9,-1.35 13.03,1.27 z m 29.89,0 23.16,30.85 11.77,-30.78 -21.66,-1.35 -13.28,1.28 z" />
    <path
       id="path28"
       fill="#6b3a19"
       d="m 734.93,609.7 -22.9,-30.76 -12.03,30.8 22.08,1.3 z m 29.89,0.02 23.18,-30.78 12,30.8 -21.92,1.33 z" />
    <path
       id="path30"
       fill="#9d5025"
       d="m 764.82,609.7 23.16,-1.72 v -29.04 l -23.16,5.96 z" />
    <path
       id="path32"
       fill="#f58536"
       d="m 800,609.74 -12,-1.76 v -29.04 l 12,5.97 v 24.84 z" />
    <path
       id="path34"
       fill="#9d5025"
       d="m 764.82,630.2 23.16,1.8 v 29.05 L 764.82,655 Z" />
    <path
       id="path36"
       fill="#f58536"
       d="M 799.76,630.28 788,632 v 29.05 l 11.76,-5.87 z M 734.93,609.7 712,607.98 v -29.04 l 22.93,5.96 z" />
    <path
       id="path38"
       fill="#9d5025"
       d="m 700,609.74 12,-1.76 v -29.04 l -12,5.97 v 24.84 z" />
    <path
       id="path40"
       fill="#f58536"
       d="M 734.93,630.2 712,632 v 29.05 l 22.93,-6.04 v -24.8 z" />
    <path
       id="path42"
       fill="#9d5025"
       d="m 700,630.25 12,1.75 v 29.05 l -12,-5.97 z" />
    <path
       id="path44"
       fill="#fbbf93"
       d="m 773.86,634.04 -23.9,-2.36 -24.07,2.3 24.07,46 z" />
    <path
       id="path46"
       fill="#6b3a19"
       d="m 773.86,605.94 -23.9,2.37 -24.07,-2.3 24.07,-46 23.9,45.94 z" />
    <path
       id="path48"
       fill="#f58536"
       d="M 773.86,605.96 750,602.5 V 560 l 23.86,11.9 z" />
    <path
       id="path50"
       fill="#9d5025"
       d="m 725.9,605.98 24.1,-3.5 V 560 l -24.1,12 z" />
    <path
       id="path52"
       fill="#f58536"
       d="M 773.86,634.03 750,637.48 v 42.5 l 23.86,-11.9 z" />
    <path
       id="path54"
       fill="#9d5025"
       d="m 725.9,634 24.1,3.5 V 680 l -24.1,-12 z" />
    <use
       height="100%"
       width="100%"
       y="0"
       x="0"
       id="use56"
       transform="translate(717.025,694.4)"
       xlink:href="#d" />
    <use
       height="100%"
       width="100%"
       y="0"
       x="0"
       id="use58"
       transform="translate(705.6,716)"
       xlink:href="#e" />
    <path
       id="path60"
       fill="#8c3123"
       d="m 958,345.42 57.98,8.62 v 5.1 c 0,7.53 -25.98,13.63 -58,13.63 -32,0 -57.98,-6.1 -57.98,-13.64 v -5.53 z" />
    <path
       id="path62"
       fill="#8c3123"
       d="m 958.02,382.13 c 24.2,0 44.93,-3.54 53.58,-8.5 l 2.88,-4.78 1.15,-4.4 v 5.45 l -19,81 c 0,5.08 -17.3,9.1 -38.6,9.1 -21.33,0 -38.6,-4.02 -38.6,-9.1 l -19.02,-81 v -5.35 l 4.38,9.27 c 8.76,4.87 29.27,8.3 53.24,8.3 z" />
    <path
       id="path64"
       fill="#e05243"
       d="m 958,340 c 32,0 58,6.12 58,13.62 0,7.5 -26,13.57 -58,13.57 -32,0 -58,-6.02 -58,-13.58 0,-7.56 26,-13.62 58,-13.62 z" />
    <path
       id="path66"
       fill="#e05243"
       d="m 958,376.6 c 29.84,0 54.4,-5.2 57.62,-12.06 l -19.02,81 c 0,5.05 -17.3,9.1 -38.6,9.1 -21.33,0 -38.6,-4.05 -38.6,-9.1 l -19.03,-81 c 3.23,6.85 27.78,12.07 57.62,12.07 z" />
    <path
       id="path68"
       fill="#ffffff"
       d="m 944.35,384.38 h 25.1 v 24.96 h -25.1 z m -7.6,33.79 c 6.84,0 12.4,5.5 12.4,12.3 0,6.8 -5.56,12.3 -12.4,12.3 -6.83,0 -12.38,-5.5 -12.38,-12.3 0,-6.8 5.55,-12.3 12.38,-12.3 z M 988.8,442.2 H 964 l 12.4,-22.94 z" />
    <use
       height="100%"
       width="100%"
       y="0"
       x="0"
       id="use70"
       transform="translate(913.05,474.4)"
       xlink:href="#a" />
    <use
       height="100%"
       width="100%"
       y="0"
       x="0"
       id="use72"
       transform="translate(971.05,474.4)"
       xlink:href="#b" />
    <use
       height="100%"
       width="100%"
       y="0"
       x="0"
       id="use74"
       transform="translate(929.525,496)"
       xlink:href="#c" />
    <path
       id="path76"
       fill="#8c3123"
       d="m 958,565.42 57.98,8.62 v 5.1 c 0,7.53 -25.98,13.63 -58,13.63 -32,0 -57.98,-6.1 -57.98,-13.64 v -5.53 z" />
    <path
       id="path78"
       fill="#8c3123"
       d="m 958.02,602.13 c 24.2,0 44.93,-3.54 53.58,-8.5 l 2.88,-4.78 1.15,-4.4 v 5.45 l -19,81 c 0,5.08 -17.3,9.1 -38.6,9.1 -21.33,0 -38.6,-4.02 -38.6,-9.1 l -19.02,-81 v -5.35 l 4.38,9.27 c 8.76,4.87 29.27,8.3 53.24,8.3 z" />
    <path
       id="path80"
       fill="#e05243"
       d="m 958,560 c 32,0 58,6.12 58,13.62 0,7.5 -26,13.57 -58,13.57 -32,0 -58,-6.02 -58,-13.58 0,-7.56 26,-13.62 58,-13.62 z" />
    <path
       id="path82"
       fill="#e05243"
       d="m 958,596.6 c 29.84,0 54.4,-5.2 57.62,-12.06 l -19.02,81 c 0,5.05 -17.3,9.1 -38.6,9.1 -21.33,0 -38.6,-4.05 -38.6,-9.1 l -19.03,-81 c 3.23,6.85 27.78,12.07 57.62,12.07 z" />
    <path
       id="path84"
       fill="#ffffff"
       d="m 944.35,604.38 h 25.1 v 24.96 h -25.1 z m -7.6,33.79 c 6.84,0 12.4,5.5 12.4,12.3 0,6.8 -5.56,12.3 -12.4,12.3 -6.83,0 -12.38,-5.5 -12.38,-12.3 0,-6.8 5.55,-12.3 12.38,-12.3 z M 988.8,662.2 H 964 l 12.4,-22.94 z" />
    <use
       height="100%"
       width="100%"
       y="0"
       x="0"
       id="use86"
       transform="translate(913.05,694.4)"
       xlink:href="#a" />
    <use
       height="100%"
       width="100%"
       y="0"
       x="0"
       id="use88"
       transform="translate(971.05,694.4)"
       xlink:href="#b" />
    <use
       height="100%"
       width="100%"
       y="0"
       x="0"
       id="use90"
       transform="translate(929.525,716)"
       xlink:href="#c" />
    <path
       id="path92"
       fill="#f58536"
       d="M 571,669.56 549.9,680 V 560 l 21.1,10.56 z" />
    <path
       id="path94"
       fill="#9d5025"
       d="M 528.8,669.56 549.9,680 V 560 l -21.1,10.56 z" />
    <path
       id="path96"
       fill="#f58536"
       d="m 541.94,603.66 -35.58,-4.5 v -17.5 l 35.58,8.34 z" />
    <path
       id="path98"
       fill="#9d5025"
       d="m 500,584.83 6.36,-3.16 v 17.5 L 500,600.9 Z" />
    <path
       id="path100"
       fill="#6b3a19"
       d="m 541.95,603.65 -7.38,1.1 -34.57,-3.85 6.38,-1.74 35.57,4.5 z" />
    <path
       id="path102"
       fill="#f58536"
       d="M 594.72,635.08 600,634 v -14 h -5.28 z" />
    <path
       id="path104"
       fill="#9d5025"
       d="m 557.8,631.92 36.9,3.42 V 620 h -36.9 z" />
    <use
       height="100%"
       width="100%"
       y="0"
       x="0"
       id="use106"
       transform="translate(517.025,694.4)"
       xlink:href="#d" />
    <use
       height="100%"
       width="100%"
       y="0"
       x="0"
       id="use108"
       transform="translate(513.525,716)"
       xlink:href="#f" />
    <use
       height="100%"
       width="100%"
       y="0"
       x="0"
       id="use110"
       transform="translate(566.475,716)"
       xlink:href="#g" />
    <path
       id="path112"
       fill="#f58536"
       d="M 571,449.56 549.9,460 V 340 l 21.1,10.56 z" />
    <path
       id="path114"
       fill="#9d5025"
       d="M 528.8,449.56 549.9,460 V 340 l -21.1,10.56 z" />
    <path
       id="path116"
       fill="#f58536"
       d="m 541.94,383.66 -35.58,-4.5 v -17.5 l 35.58,8.34 z" />
    <path
       id="path118"
       fill="#9d5025"
       d="m 500,364.83 6.36,-3.16 v 17.5 L 500,380.9 Z" />
    <path
       id="path120"
       fill="#6b3a19"
       d="m 541.95,383.65 -7.38,1.1 -34.57,-3.85 6.38,-1.74 35.57,4.5 z" />
    <path
       id="path122"
       fill="#f58536"
       d="M 594.72,415.08 600,414 v -14 h -5.28 z" />
    <path
       id="path124"
       fill="#9d5025"
       d="m 557.8,411.92 36.9,3.42 V 400 h -36.9 z" />
    <g
       id="g132">
      <use
         height="100%"
         width="100%"
         y="0"
         x="0"
         id="use126"
         transform="translate(517.025,474.4)"
         xlink:href="#d" />
      <use
         height="100%"
         width="100%"
         y="0"
         x="0"
         id="use128"
         transform="translate(513.525,496)"
         xlink:href="#f" />
      <use
         height="100%"
         width="100%"
         y="0"
         x="0"
         id="use130"
         transform="translate(566.475,496)"
         xlink:href="#g" />
    </g>
    <path
       id="path134"
       fill-opacity="0"
       fill="#ffffff"
       stroke-width="2"
       stroke-opacity="0"
       stroke="#000000"
       d="m 40,185 c 0,-2.76 2.24,-5 5,-5 h 230 c 2.76,0 5,2.24 5,5 v 70 c 0,2.76 -2.24,5 -5,5 H 45 c -2.76,0 -5,-2.24 -5,-5 z" />
    <g
       id="g140">
      <use
         height="100%"
         width="100%"
         y="0"
         x="0"
         id="use136"
         transform="translate(88.884938,225.78889)"
         xlink:href="#h" />
      <use
         height="100%"
         width="100%"
         y="0"
         x="0"
         id="use138"
         transform="translate(166.4337,225.78889)"
         xlink:href="#i" />
    </g>
    <path
       id="path142"
       fill-opacity="0"
       fill="#ffffff"
       stroke-width="2"
       stroke-opacity="0"
       stroke="#000000"
       d="m 40,405 c 0,-2.76 2.24,-5 5,-5 h 230 c 2.76,0 5,2.24 5,5 v 70 c 0,2.76 -2.24,5 -5,5 H 45 c -2.76,0 -5,-2.24 -5,-5 z" />
    <g
       id="g148">
      <use
         height="100%"
         width="100%"
         y="0"
         x="0"
         id="use144"
         transform="translate(76.500062,446.51111)"
         xlink:href="#j" />
      <use
         height="100%"
         width="100%"
         y="0"
         x="0"
         id="use146"
         transform="translate(148.12907,446.51111)"
         xlink:href="#k" />
    </g>
    <path
       id="path150"
       fill-opacity="0"
       fill="#ffffff"
       stroke-width="2"
       stroke-opacity="0"
       stroke="#000000"
       d="m 40,625 c 0,-2.76 2.24,-5 5,-5 h 230 c 2.76,0 5,2.24 5,5 v 70 c 0,2.76 -2.24,5 -5,5 H 45 c -2.76,0 -5,-2.24 -5,-5 z" />
    <g
       id="g156">
      <use
         height="100%"
         width="100%"
         y="0"
         x="0"
         id="use152"
         transform="translate(95.135556,666.51111)"
         xlink:href="#l" />
      <use
         height="100%"
         width="100%"
         y="0"
         x="0"
         id="use154"
         transform="translate(166.76457,666.51111)"
         xlink:href="#m" />
    </g>
    <defs
       id="defs340">
      <path
         id="n"
         d="m 115,-194 c 53,0 69,39 70,98 C 185,-30 162,4 115,4 84,3 66,-7 56,-30 L 54,0 H 23 l 1,-261 h 32 v 101 c 10,-23 28,-34 59,-34 z m -8,174 c 40,0 45,-34 45,-75 0,-40 -5,-75 -45,-74 -42,0 -51,32 -51,76 0,43 10,73 51,73" />
      <path
         id="o"
         d="M 84,4 C -5,8 30,-112 23,-190 h 32 v 120 c 0,31 7,50 39,49 72,-2 45,-101 50,-169 h 31 l 1,190 h -30 c -1,-10 1,-25 -2,-33 -11,22 -28,36 -60,37" />
      <path
         id="p"
         d="m 96,-169 c -40,0 -48,33 -48,73 0,40 9,75 48,75 24,0 41,-14 43,-38 l 32,2 C 165,-20 140,4 97,4 38,4 21,-37 15,-95 c -10,-93 101,-131 147,-64 4,7 5,14 7,22 l -32,3 c -4,-21 -16,-35 -41,-35" />
      <path
         id="q"
         d="M 143,0 79,-87 56,-68 V 0 H 24 v -261 h 32 v 163 l 83,-92 h 37 l -77,82 82,108 h -38" />
      <path
         id="r"
         d="m 100,-194 c 63,0 86,42 84,106 H 49 c 0,40 14,67 53,68 26,1 43,-12 49,-29 l 28,8 C 168,-13 142,4 102,4 44,4 14,-33 15,-96 c 1,-61 26,-98 85,-98 z m 52,81 c 6,-60 -76,-77 -97,-28 -3,7 -6,17 -6,28 h 103" />
      <path
         id="s"
         d="m 59,-47 c -2,24 18,29 38,22 V -1 C 64,9 27,4 27,-40 V -167 H 5 v -23 h 24 l 9,-43 h 21 v 43 h 35 v 23 H 59 v 120" />
      <g
         id="a">
        <use
           height="100%"
           width="100%"
           y="0"
           x="0"
           id="use164"
           xlink:href="#n"
           transform="scale(0.05)" />
        <use
           height="100%"
           width="100%"
           y="0"
           x="0"
           id="use166"
           xlink:href="#o"
           transform="matrix(0.05,0,0,0.05,10,0)" />
        <use
           height="100%"
           width="100%"
           y="0"
           x="0"
           id="use168"
           xlink:href="#p"
           transform="matrix(0.05,0,0,0.05,20,0)" />
        <use
           height="100%"
           width="100%"
           y="0"
           x="0"
           id="use170"
           xlink:href="#q"
           transform="matrix(0.05,0,0,0.05,29,0)" />
        <use
           height="100%"
           width="100%"
           y="0"
           x="0"
           id="use172"
           xlink:href="#r"
           transform="matrix(0.05,0,0,0.05,38,0)" />
        <use
           height="100%"
           width="100%"
           y="0"
           x="0"
           id="use174"
           xlink:href="#s"
           transform="matrix(0.05,0,0,0.05,48,0)" />
      </g>
      <path
         id="t"
         d="M 206,0 H 170 L 130,-164 89,0 H 53 L -1,-190 h 32 l 39,164 43,-164 h 34 l 41,164 42,-164 h 31" />
      <path
         id="u"
         d="m 24,-231 v -30 h 32 v 30 z M 24,0 V -190 H 56 V 0 H 24" />
      <path
         id="v"
         d="M 106,-169 C 34,-169 62,-67 57,0 H 25 v -261 h 32 l -1,103 c 12,-21 28,-36 61,-36 89,0 53,116 60,194 h -32 v -121 c 2,-32 -8,-49 -39,-48" />
      <g
         id="b">
        <use
           height="100%"
           width="100%"
           y="0"
           x="0"
           id="use180"
           xlink:href="#t"
           transform="scale(0.05)" />
        <use
           height="100%"
           width="100%"
           y="0"
           x="0"
           id="use182"
           xlink:href="#u"
           transform="matrix(0.05,0,0,0.05,12.95,0)" />
        <use
           height="100%"
           width="100%"
           y="0"
           x="0"
           id="use184"
           xlink:href="#s"
           transform="matrix(0.05,0,0,0.05,16.9,0)" />
        <use
           height="100%"
           width="100%"
           y="0"
           x="0"
           id="use186"
           xlink:href="#v"
           transform="matrix(0.05,0,0,0.05,21.9,0)" />
      </g>
      <path
         id="w"
         d="m 100,-194 c 62,-1 85,37 85,99 1,63 -27,99 -86,99 -59,0 -83,-39 -84,-99 0,-66 28,-99 85,-99 z m -1,174 c 44,1 53,-31 53,-75 0,-43 -8,-75 -51,-75 -43,0 -53,32 -53,75 0,43 10,74 51,75" />
      <path
         id="x"
         d="m 24,-231 v -30 h 32 v 30 z M -9,49 C 15,53 24,43 24,19 V -190 H 56 V 24 C 58,64 33,82 -9,73 V 49" />
      <path
         id="y"
         d="m 135,-143 c -3,-34 -86,-38 -87,0 15,53 115,12 119,90 4,78 -150,74 -157,8 l 28,-5 c 4,36 97,45 98,0 -10,-56 -113,-15 -118,-90 -4,-57 82,-63 122,-42 12,7 21,19 24,35" />
      <g
         id="c">
        <use
           height="100%"
           width="100%"
           y="0"
           x="0"
           id="use192"
           xlink:href="#w"
           transform="scale(0.05)" />
        <use
           height="100%"
           width="100%"
           y="0"
           x="0"
           id="use194"
           xlink:href="#n"
           transform="matrix(0.05,0,0,0.05,10,0)" />
        <use
           height="100%"
           width="100%"
           y="0"
           x="0"
           id="use196"
           xlink:href="#x"
           transform="matrix(0.05,0,0,0.05,20,0)" />
        <use
           height="100%"
           width="100%"
           y="0"
           x="0"
           id="use198"
           xlink:href="#r"
           transform="matrix(0.05,0,0,0.05,23.95,0)" />
        <use
           height="100%"
           width="100%"
           y="0"
           x="0"
           id="use200"
           xlink:href="#p"
           transform="matrix(0.05,0,0,0.05,33.95,0)" />
        <use
           height="100%"
           width="100%"
           y="0"
           x="0"
           id="use202"
           xlink:href="#s"
           transform="matrix(0.05,0,0,0.05,42.95,0)" />
        <use
           height="100%"
           width="100%"
           y="0"
           x="0"
           id="use204"
           xlink:href="#y"
           transform="matrix(0.05,0,0,0.05,47.95,0)" />
      </g>
      <path
         id="z"
         d="M 205,0 177,-72 H 64 L 36,0 H 1 l 101,-248 h 38 L 239,0 Z m -38,-99 -47,-123 c -12,45 -31,82 -46,123 h 93" />
      <path
         id="A"
         d="m 210,-169 c -67,3 -38,105 -44,169 h -31 v -121 c 0,-29 -5,-50 -35,-48 C 34,-165 62,-65 56,0 H 25 l -1,-190 h 30 c 1,10 -1,24 2,32 10,-44 99,-50 107,0 11,-21 27,-35 58,-36 85,-2 47,119 55,194 h -31 v -121 c 0,-29 -5,-49 -35,-48" />
      <path
         id="B"
         d="M 141,-36 C 126,-15 110,5 73,4 37,3 15,-17 15,-53 c -1,-64 63,-63 125,-63 3,-35 -9,-54 -41,-54 -24,1 -41,7 -42,31 l -33,-3 c 5,-37 33,-52 76,-52 45,0 72,20 72,64 v 82 c -1,20 7,32 28,27 V -1 C 169,8 139,-3 141,-36 Z M 48,-53 c 0,20 12,33 32,33 41,-3 63,-29 60,-74 -43,2 -92,-5 -92,41" />
      <path
         id="C"
         d="M 9,0 V -24 L 125,-166 H 16 v -24 h 144 v 24 L 44,-24 H 167 V 0 H 9" />
      <path
         id="D"
         d="m 117,-194 c 89,-4 53,116 60,194 h -32 v -121 c 0,-31 -8,-49 -39,-48 C 34,-167 62,-67 57,0 H 25 l -1,-190 h 30 c 1,10 -1,24 2,32 11,-22 29,-35 61,-36" />
      <g
         id="d">
        <use
           height="100%"
           width="100%"
           y="0"
           x="0"
           id="use212"
           xlink:href="#z"
           transform="scale(0.05)" />
        <use
           height="100%"
           width="100%"
           y="0"
           x="0"
           id="use214"
           xlink:href="#A"
           transform="matrix(0.05,0,0,0.05,12,0)" />
        <use
           height="100%"
           width="100%"
           y="0"
           x="0"
           id="use216"
           xlink:href="#B"
           transform="matrix(0.05,0,0,0.05,26.95,0)" />
        <use
           height="100%"
           width="100%"
           y="0"
           x="0"
           id="use218"
           xlink:href="#C"
           transform="matrix(0.05,0,0,0.05,36.95,0)" />
        <use
           height="100%"
           width="100%"
           y="0"
           x="0"
           id="use220"
           xlink:href="#w"
           transform="matrix(0.05,0,0,0.05,45.95,0)" />
        <use
           height="100%"
           width="100%"
           y="0"
           x="0"
           id="use222"
           xlink:href="#D"
           transform="matrix(0.05,0,0,0.05,55.95,0)" />
      </g>
      <path
         id="E"
         d="m 212,-179 c -10,-28 -35,-45 -73,-45 -59,0 -87,40 -87,99 0,60 29,101 89,101 43,0 62,-24 78,-52 l 27,14 C 228,-24 195,4 139,4 59,4 22,-46 18,-125 c -6,-104 99,-153 187,-111 19,9 31,26 39,46" />
      <path
         id="F"
         d="M 24,0 V -261 H 56 V 0 H 24" />
      <path
         id="G"
         d="m 85,-194 c 31,0 48,13 60,33 l -1,-100 h 32 l 1,261 h -30 c -2,-10 0,-23 -3,-31 C 134,-8 116,4 85,4 32,4 16,-35 15,-94 c 0,-66 23,-100 70,-100 z m 9,24 c -40,0 -46,34 -46,75 0,40 6,74 45,74 42,0 51,-32 51,-76 0,-42 -9,-74 -50,-73" />
      <path
         id="H"
         d="m 63,-220 v 92 h 138 v 28 H 63 V 0 H 30 v -248 h 175 v 28 H 63" />
      <path
         id="I"
         d="M 114,-163 C 36,-179 61,-72 57,0 H 25 l -1,-190 h 30 c 1,12 -1,29 2,39 6,-27 23,-49 58,-41 v 29" />
      <g
         id="e">
        <use
           height="100%"
           width="100%"
           y="0"
           x="0"
           id="use230"
           xlink:href="#E"
           transform="scale(0.05)" />
        <use
           height="100%"
           width="100%"
           y="0"
           x="0"
           id="use232"
           xlink:href="#F"
           transform="matrix(0.05,0,0,0.05,12.95,0)" />
        <use
           height="100%"
           width="100%"
           y="0"
           x="0"
           id="use234"
           xlink:href="#w"
           transform="matrix(0.05,0,0,0.05,16.9,0)" />
        <use
           height="100%"
           width="100%"
           y="0"
           x="0"
           id="use236"
           xlink:href="#o"
           transform="matrix(0.05,0,0,0.05,26.9,0)" />
        <use
           height="100%"
           width="100%"
           y="0"
           x="0"
           id="use238"
           xlink:href="#G"
           transform="matrix(0.05,0,0,0.05,36.9,0)" />
        <use
           height="100%"
           width="100%"
           y="0"
           x="0"
           id="use240"
           xlink:href="#H"
           transform="matrix(0.05,0,0,0.05,46.9,0)" />
        <use
           height="100%"
           width="100%"
           y="0"
           x="0"
           id="use242"
           xlink:href="#I"
           transform="matrix(0.05,0,0,0.05,57.85,0)" />
        <use
           height="100%"
           width="100%"
           y="0"
           x="0"
           id="use244"
           xlink:href="#w"
           transform="matrix(0.05,0,0,0.05,63.8,0)" />
        <use
           height="100%"
           width="100%"
           y="0"
           x="0"
           id="use246"
           xlink:href="#D"
           transform="matrix(0.05,0,0,0.05,73.8,0)" />
        <use
           height="100%"
           width="100%"
           y="0"
           x="0"
           id="use248"
           xlink:href="#s"
           transform="matrix(0.05,0,0,0.05,83.8,0)" />
      </g>
      <path
         id="J"
         d="m 233,-177 c -1,41 -23,64 -60,70 L 243,0 H 205 L 140,-103 H 63 V 0 H 30 v -248 c 88,3 205,-21 203,71 z m -170,48 c 60,-2 137,13 137,-47 0,-61 -80,-42 -137,-45 v 92" />
      <g
         id="f">
        <use
           height="100%"
           width="100%"
           y="0"
           x="0"
           id="use252"
           xlink:href="#J"
           transform="scale(0.05)" />
        <use
           height="100%"
           width="100%"
           y="0"
           x="0"
           id="use254"
           xlink:href="#w"
           transform="matrix(0.05,0,0,0.05,12.95,0)" />
        <use
           height="100%"
           width="100%"
           y="0"
           x="0"
           id="use256"
           xlink:href="#o"
           transform="matrix(0.05,0,0,0.05,22.95,0)" />
        <use
           height="100%"
           width="100%"
           y="0"
           x="0"
           id="use258"
           xlink:href="#s"
           transform="matrix(0.05,0,0,0.05,32.95,0)" />
        <use
           height="100%"
           width="100%"
           y="0"
           x="0"
           id="use260"
           xlink:href="#r"
           transform="matrix(0.05,0,0,0.05,37.95,0)" />
      </g>
      <path
         id="K"
         d="m 54,-142 c 48,-35 137,-8 131,61 C 196,18 31,33 14,-55 l 32,-4 c 7,23 22,37 52,37 35,-1 51,-22 54,-58 4,-55 -73,-65 -99,-34 H 22 l 8,-134 h 141 v 27 H 59" />
      <path
         id="L"
         d="m 126,-127 c 33,6 58,20 58,59 0,88 -139,92 -164,29 -3,-8 -5,-16 -6,-25 l 32,-3 c 6,27 21,44 54,44 32,0 52,-15 52,-46 0,-38 -36,-46 -79,-43 v -28 c 39,1 72,-4 72,-42 0,-27 -17,-43 -46,-43 -28,0 -47,15 -49,41 l -32,-3 c 6,-42 35,-63 81,-64 48,-1 79,21 79,65 0,36 -21,52 -52,59" />
      <g
         id="g">
        <use
           height="100%"
           width="100%"
           y="0"
           x="0"
           id="use265"
           xlink:href="#K"
           transform="scale(0.05)" />
        <use
           height="100%"
           width="100%"
           y="0"
           x="0"
           id="use267"
           xlink:href="#L"
           transform="matrix(0.05,0,0,0.05,10,0)" />
      </g>
      <path
         id="M"
         d="M 30,0 V -248 H 63 V -27 H 188 V 0 H 30" />
      <path
         id="N"
         d="M 108,0 H 70 L 1,-190 h 34 l 54,165 56,-165 h 34" />
      <g
         id="h">
        <use
           height="100%"
           width="100%"
           y="0"
           x="0"
           id="use272"
           xlink:href="#M"
           transform="scale(0.0808642)" />
        <use
           height="100%"
           width="100%"
           y="0"
           x="0"
           id="use274"
           xlink:href="#r"
           transform="matrix(0.0808642,0,0,0.0808642,16.17284,0)" />
        <use
           height="100%"
           width="100%"
           y="0"
           x="0"
           id="use276"
           xlink:href="#N"
           transform="matrix(0.0808642,0,0,0.0808642,32.345679,0)" />
        <use
           height="100%"
           width="100%"
           y="0"
           x="0"
           id="use278"
           xlink:href="#r"
           transform="matrix(0.0808642,0,0,0.0808642,46.901235,0)" />
        <use
           height="100%"
           width="100%"
           y="0"
           x="0"
           id="use280"
           xlink:href="#F"
           transform="matrix(0.0808642,0,0,0.0808642,63.074074,0)" />
      </g>
      <path
         id="O"
         d="m 30,0 v -248 h 187 v 28 H 63 v 79 h 144 v 27 H 63 v 87 H 225 V 0 H 30" />
      <path
         id="P"
         d="M 179,-190 93,31 C 79,59 56,82 12,73 V 49 C 51,55 65,29 76,-1 L 1,-190 h 34 l 57,156 54,-156 h 33" />
      <g
         id="i">
        <use
           height="100%"
           width="100%"
           y="0"
           x="0"
           id="use285"
           xlink:href="#O"
           transform="scale(0.0808642)" />
        <use
           height="100%"
           width="100%"
           y="0"
           x="0"
           id="use287"
           xlink:href="#B"
           transform="matrix(0.0808642,0,0,0.0808642,19.407407,0)" />
        <use
           height="100%"
           width="100%"
           y="0"
           x="0"
           id="use289"
           xlink:href="#y"
           transform="matrix(0.0808642,0,0,0.0808642,35.580247,0)" />
        <use
           height="100%"
           width="100%"
           y="0"
           x="0"
           id="use291"
           xlink:href="#P"
           transform="matrix(0.0808642,0,0,0.0808642,50.135802,0)" />
      </g>
      <g
         id="j">
        <use
           height="100%"
           width="100%"
           y="0"
           x="0"
           id="use294"
           xlink:href="#M"
           transform="scale(0.07469136)" />
        <use
           height="100%"
           width="100%"
           y="0"
           x="0"
           id="use296"
           xlink:href="#r"
           transform="matrix(0.07469136,0,0,0.07469136,14.938272,0)" />
        <use
           height="100%"
           width="100%"
           y="0"
           x="0"
           id="use298"
           xlink:href="#N"
           transform="matrix(0.07469136,0,0,0.07469136,29.876543,0)" />
        <use
           height="100%"
           width="100%"
           y="0"
           x="0"
           id="use300"
           xlink:href="#r"
           transform="matrix(0.07469136,0,0,0.07469136,43.320988,0)" />
        <use
           height="100%"
           width="100%"
           y="0"
           x="0"
           id="use302"
           xlink:href="#F"
           transform="matrix(0.07469136,0,0,0.07469136,58.259259,0)" />
      </g>
      <path
         id="Q"
         d="m 240,0 2,-218 C 219,-142 188,-73 162,0 H 139 L 58,-218 59,0 H 30 v -248 h 44 l 77,211 c 21,-75 51,-140 76,-211 h 43 V 0 h -30" />
      <g
         id="k">
        <use
           height="100%"
           width="100%"
           y="0"
           x="0"
           id="use306"
           xlink:href="#Q"
           transform="scale(0.07469136)" />
        <use
           height="100%"
           width="100%"
           y="0"
           x="0"
           id="use308"
           xlink:href="#r"
           transform="matrix(0.07469136,0,0,0.07469136,22.332716,0)" />
        <use
           height="100%"
           width="100%"
           y="0"
           x="0"
           id="use310"
           xlink:href="#G"
           transform="matrix(0.07469136,0,0,0.07469136,37.270988,0)" />
        <use
           height="100%"
           width="100%"
           y="0"
           x="0"
           id="use312"
           xlink:href="#u"
           transform="matrix(0.07469136,0,0,0.07469136,52.209259,0)" />
        <use
           height="100%"
           width="100%"
           y="0"
           x="0"
           id="use314"
           xlink:href="#o"
           transform="matrix(0.07469136,0,0,0.07469136,58.109877,0)" />
        <use
           height="100%"
           width="100%"
           y="0"
           x="0"
           id="use316"
           xlink:href="#A"
           transform="matrix(0.07469136,0,0,0.07469136,73.048148,0)" />
      </g>
      <g
         id="l">
        <use
           height="100%"
           width="100%"
           y="0"
           x="0"
           id="use319"
           xlink:href="#M"
           transform="scale(0.07469136)" />
        <use
           height="100%"
           width="100%"
           y="0"
           x="0"
           id="use321"
           xlink:href="#r"
           transform="matrix(0.07469136,0,0,0.07469136,14.938272,0)" />
        <use
           height="100%"
           width="100%"
           y="0"
           x="0"
           id="use323"
           xlink:href="#N"
           transform="matrix(0.07469136,0,0,0.07469136,29.876543,0)" />
        <use
           height="100%"
           width="100%"
           y="0"
           x="0"
           id="use325"
           xlink:href="#r"
           transform="matrix(0.07469136,0,0,0.07469136,43.320988,0)" />
        <use
           height="100%"
           width="100%"
           y="0"
           x="0"
           id="use327"
           xlink:href="#F"
           transform="matrix(0.07469136,0,0,0.07469136,58.259259,0)" />
      </g>
      <path
         id="R"
         d="M 197,0 V -115 H 63 V 0 H 30 v -248 h 33 v 105 h 134 v -105 h 34 V 0 h -34" />
      <g
         id="m">
        <use
           height="100%"
           width="100%"
           y="0"
           x="0"
           id="use331"
           xlink:href="#R"
           transform="scale(0.07469136)" />
        <use
           height="100%"
           width="100%"
           y="0"
           x="0"
           id="use333"
           xlink:href="#B"
           transform="matrix(0.07469136,0,0,0.07469136,19.345062,0)" />
        <use
           height="100%"
           width="100%"
           y="0"
           x="0"
           id="use335"
           xlink:href="#I"
           transform="matrix(0.07469136,0,0,0.07469136,34.283333,0)" />
        <use
           height="100%"
           width="100%"
           y="0"
           x="0"
           id="use337"
           xlink:href="#G"
           transform="matrix(0.07469136,0,0,0.07469136,43.171605,0)" />
      </g>
    </defs>
  </g>
</svg>
